<?xml version="1.0" encoding="utf-8"?>
<!-- Generator: Adobe Illustrator 16.0.0, SVG Export Plug-In . SVG Version: 6.00 Build 0)  -->
<!DOCTYPE svg PUBLIC "-//W3C//DTD SVG 1.1//EN" "http://www.w3.org/Graphics/SVG/1.1/DTD/svg11.dtd">
<svg version="1.1" id="Layer_1" xmlns="http://www.w3.org/2000/svg" xmlns:xlink="http://www.w3.org/1999/xlink" x="0px" y="0px"
	 width="360px" height="150px" viewBox="0 0 360 150" enable-background="new 0 0 360 150" xml:space="preserve">
<path fill-rule="evenodd" clip-rule="evenodd" fill="none" stroke="#F26B3C" stroke-miterlimit="10" d="M6.053,107.162
	c0,0,19.451-1.217,25.528-1.217c6.079,0,18.235,3.647,24.313,3.647c6.079,0,20.666-3.647,27.96-3.647
	c7.293,0,9.118,4.863,12.156,4.863c3.039,0,10.333-4.863,23.098-4.863s19.45,4.863,21.882-1.216
	c2.432-6.077,15.196-75.37,23.097-75.37c7.902,0,1.216,44.979,17.019,60.783c15.804,15.803,11.549-3.647,20.667-3.647
	c9.116,0,15.195,17.628,48.625,17.02c33.431-0.607,26.745-4.862,35.255-4.862c8.509,0,17.02,3.646,36.47,3.646
	s16.411,3.646,32.823,3.646"/>
</svg>
